<?xml version="1.0" encoding="utf-8"?>
<!-- Generator: Adobe Illustrator 22.0.0, SVG Export Plug-In . SVG Version: 6.00 Build 0)  -->
<svg version="1.1" id="Layer_1" xmlns="http://www.w3.org/2000/svg" xmlns:xlink="http://www.w3.org/1999/xlink" x="0px" y="0px"
	 viewBox="0 0 700 550" style="enable-background:new 0 0 700 550;" xml:space="preserve">
<style type="text/css">
	.st0{fill:#5067EB;}
	.st1{fill:#CAD4FF;}
	.st2{fill:#2543BF;}
</style>
<g>
	<g>
		<g>
			<polygon class="st0" points="236.7,386.9 0.1,480.2 0.1,101.3 236.7,8 			"/>
		</g>
		<g>
			<polygon class="st1" points="236.7,17.3 1.6,110.6 54.5,206.2 312.5,60.1 			"/>
		</g>
		<g>
			<path class="st2" d="M0.1,101.3v378.9c0,0,7.8,21.4,31.3,34.6c18.1,10.2,50.3,12,50.3,12V147.9c0,0-27.3,4.9-52.1-12.4
				C6.3,119.1,0.1,101.3,0.1,101.3z"/>
		</g>
		<g>
			<polygon class="st0" points="318.3,433.5 81.7,526.8 81.7,147.9 318.3,54.6 			"/>
		</g>
		<g>
			<polygon class="st1" points="145.6,501.6 254.4,458.7 254.4,238.1 145.6,280.9 			"/>
		</g>
		<g>
			<polygon class="st0" points="145.6,501.6 235.8,542.6 235.8,322 145.6,280.9 118.2,287.8 125.2,498.4 			"/>
		</g>
		<g>
			<ellipse class="st1" cx="219.2" cy="411.8" rx="4.7" ry="7"/>
		</g>
	</g>
	<g>
		<path d="M359.6,291.9V154.7h21.5v58.8h24.5v-58.8h21.5v137.2h-21.5v-58.7h-24.5v58.7H359.6z"/>
		<path d="M446.3,259v-71.4c0-11,2.8-19.4,8.5-25.4c5.7-6,13.7-9,24.3-9c10.5,0,18.6,3,24.2,9c5.6,6,8.4,14.5,8.4,25.4V259
			c0,11-2.8,19.4-8.4,25.4c-5.6,6-13.7,9-24.2,9c-10.5,0-18.6-3-24.3-9C449.1,278.4,446.3,270,446.3,259z M467.8,260.3
			c0,9.1,3.7,13.6,11.2,13.6c7.4,0,11.1-4.5,11.1-13.6v-74c0-9-3.7-13.5-11.1-13.5c-7.5,0-11.2,4.5-11.2,13.5V260.3z"/>
		<path d="M530.4,291.9V154.7h29.9l15.9,97.7l14.8-97.7h31v137.2h-21.5v-98.3l-14.9,98.3h-20.4l-16.1-96.8v96.8H530.4z"/>
		<path d="M641.3,291.9V154.7h58.7v19.6h-37.2v38.3h29.6v19.5h-29.6v40.2h37.2v19.6H641.3z"/>
	</g>
	<g>
		<path d="M359.5,433V315.4h27.9c9.5,0,16.4,2.2,20.8,6.6c4.4,4.4,6.6,11.2,6.6,20.4v4.2c0,12-4,19.9-12,23.7
			c9.2,3.6,13.8,11.9,13.8,25.2v9.6c0,9.1-2.4,16-7.1,20.8c-4.8,4.8-11.7,7.1-20.9,7.1H359.5z M377.9,363.3h7.2
			c3.7,0,6.5-0.9,8.3-2.8c1.9-1.9,2.8-5.1,2.8-9.6v-6.6c0-4.2-0.7-7.3-2.2-9.2c-1.5-1.9-3.9-2.9-7.2-2.9h-9V363.3z M377.9,416.2
			h10.6c3.2,0,5.6-0.9,7.2-2.6c1.6-1.7,2.4-4.7,2.4-8.9v-10.3c0-5.4-0.9-9.1-2.8-11.2c-1.8-2.1-4.9-3.1-9.1-3.1h-8.3V416.2z"/>
		<path d="M430.3,404.8v-61.2c0-9.4,2.4-16.7,7.3-21.8s11.8-7.7,20.8-7.7c9,0,16,2.6,20.8,7.7c4.8,5.1,7.2,12.4,7.2,21.8v61.2
			c0,9.4-2.4,16.7-7.2,21.8c-4.8,5.1-11.7,7.7-20.8,7.7c-9,0-16-2.6-20.8-7.7C432.7,421.5,430.3,414.2,430.3,404.8z M448.7,405.9
			c0,7.8,3.2,11.6,9.6,11.6c6.4,0,9.6-3.9,9.6-11.6v-63.5c0-7.7-3.2-11.6-9.6-11.6c-6.4,0-9.6,3.9-9.6,11.6V405.9z"/>
		<path d="M501,404.8v-61.2c0-9.4,2.4-16.7,7.3-21.8s11.8-7.7,20.8-7.7c9,0,16,2.6,20.8,7.7s7.2,12.4,7.2,21.8v61.2
			c0,9.4-2.4,16.7-7.2,21.8c-4.8,5.1-11.7,7.7-20.8,7.7c-9,0-16-2.6-20.8-7.7C503.4,421.5,501,414.2,501,404.8z M519.5,405.9
			c0,7.8,3.2,11.6,9.6,11.6c6.4,0,9.6-3.9,9.6-11.6v-63.5c0-7.7-3.2-11.6-9.6-11.6c-6.4,0-9.6,3.9-9.6,11.6V405.9z"/>
		<path d="M573.3,433V315.4h18.5v51.3l24.5-51.3h18.1l-25.7,52.4l25.7,65.2h-19l-18-46.8l-5.7,10.7V433H573.3z"/>
		<path d="M643.3,404.8v-8h18.9v9.2c0,7.7,3,11.5,8.9,11.5s8.9-3.8,8.9-11.5c0-3.3-0.7-6.4-2-9.3c-1.3-2.9-3-5.5-5.1-7.8
			c-2.1-2.3-4.4-4.6-6.9-7c-2.5-2.3-5.1-4.8-7.8-7.3c-2.6-2.5-5-5.2-7.2-8.1c-2.1-2.8-3.9-6.2-5.3-10.2c-1.4-3.9-2-8.2-2-12.7
			c0-9.5,2.5-16.7,7.5-21.9c5-5.1,11.8-7.7,20.3-7.7c8.5,0,15.1,2.6,19.7,7.7s6.9,12.4,6.9,21.9v4.6h-17.5v-5.7
			c0-7.7-3.1-11.6-9.3-11.6c-3.1,0-5.4,0.9-6.9,2.8c-1.5,1.8-2.3,4.8-2.3,8.8c0,3.3,0.7,6.4,2,9.3c1.3,2.9,3.1,5.5,5.2,7.8
			c2.1,2.3,4.5,4.6,7,7c2.6,2.3,5.2,4.8,7.7,7.3c2.6,2.5,4.9,5.2,7,8.1c2.1,2.8,3.8,6.2,5.2,10.2c1.3,3.9,2,8.2,2,12.7
			c0,9.5-2.3,16.7-7.1,21.9s-11.3,7.7-19.9,7.7s-15.4-2.6-20.5-7.7C645.9,421.5,643.3,414.3,643.3,404.8z"/>
	</g>
</g>
</svg>
